<svg width="17" height="16" viewBox="0 0 17 16" fill="none" xmlns="http://www.w3.org/2000/svg">
<g clip-path="url(#clip0_4_350)">
<path d="M13.4531 6.5C13.4531 7.93437 12.9875 9.25938 12.2031 10.3344L16.1594 14.2937C16.55 14.6844 16.55 15.3188 16.1594 15.7094C15.7688 16.1 15.1344 16.1 14.7437 15.7094L10.7875 11.75C9.7125 12.5375 8.3875 13 6.95312 13C3.3625 13 0.453125 10.0906 0.453125 6.5C0.453125 2.90937 3.3625 0 6.95312 0C10.5437 0 13.4531 2.90937 13.4531 6.5ZM6.95312 11C7.54407 11 8.12924 10.8836 8.6752 10.6575C9.22117 10.4313 9.71724 10.0998 10.1351 9.68198C10.553 9.26412 10.8844 8.76804 11.1106 8.22208C11.3367 7.67611 11.4531 7.09095 11.4531 6.5C11.4531 5.90905 11.3367 5.32389 11.1106 4.77792C10.8844 4.23196 10.553 3.73588 10.1351 3.31802C9.71724 2.90016 9.22117 2.56869 8.6752 2.34254C8.12924 2.1164 7.54407 2 6.95312 2C6.36218 2 5.77701 2.1164 5.23105 2.34254C4.68508 2.56869 4.18901 2.90016 3.77114 3.31802C3.35328 3.73588 3.02181 4.23196 2.79567 4.77792C2.56952 5.32389 2.45312 5.90905 2.45312 6.5C2.45312 7.09095 2.56952 7.67611 2.79567 8.22208C3.02181 8.76804 3.35328 9.26412 3.77114 9.68198C4.18901 10.0998 4.68508 10.4313 5.23105 10.6575C5.77701 10.8836 6.36218 11 6.95312 11Z" fill="#8A8A8A"/>
</g>
<defs>
<clipPath id="clip0_4_350">
<path d="M0.453125 0H16.4531V16H0.453125V0Z" fill="white"/>
</clipPath>
</defs>
</svg>
