<svg width="19" height="16" viewBox="0 0 19 16" fill="none" xmlns="http://www.w3.org/2000/svg">
<g clip-path="url(#clip0_4_376)">
<path d="M10.4343 0.5625C10.2687 0.21875 9.91866 0 9.53428 0C9.14991 0 8.80303 0.21875 8.63428 0.5625L6.62491 4.69688L2.13741 5.35938C1.76241 5.41563 1.44991 5.67812 1.33428 6.0375C1.21866 6.39687 1.31241 6.79375 1.58116 7.05937L4.83741 10.2812L4.06866 14.8344C4.00616 15.2094 4.16241 15.5906 4.47178 15.8125C4.78116 16.0344 5.19053 16.0625 5.52803 15.8844L9.53741 13.7437L13.5468 15.8844C13.8843 16.0625 14.2937 16.0375 14.603 15.8125C14.9124 15.5875 15.0687 15.2094 15.0062 14.8344L14.2343 10.2812L17.4905 7.05937C17.7593 6.79375 17.8562 6.39687 17.7374 6.0375C17.6187 5.67812 17.3093 5.41563 16.9343 5.35938L12.4437 4.69688L10.4343 0.5625Z" fill="#FACC15"/>
</g>
<defs>
<clipPath id="clip0_4_376">
<path d="M0.53125 0H18.5312V16H0.53125V0Z" fill="white"/>
</clipPath>
</defs>
</svg>
