<svg width="17" height="16" viewBox="0 0 17 16" fill="none" xmlns="http://www.w3.org/2000/svg">
<g clip-path="url(#clip0_4_308)">
<path d="M8.875 16C10.9967 16 13.0316 15.1571 14.5319 13.6569C16.0321 12.1566 16.875 10.1217 16.875 8C16.875 5.87827 16.0321 3.84344 14.5319 2.34315C13.0316 0.842855 10.9967 0 8.875 0C6.75327 0 4.71844 0.842855 3.21815 2.34315C1.71785 3.84344 0.875 5.87827 0.875 8C0.875 10.1217 1.71785 12.1566 3.21815 13.6569C4.71844 15.1571 6.75327 16 8.875 16ZM7.625 10.5H8.375V8.5H7.625C7.20937 8.5 6.875 8.16562 6.875 7.75C6.875 7.33437 7.20937 7 7.625 7H9.125C9.54062 7 9.875 7.33437 9.875 7.75V10.5H10.125C10.5406 10.5 10.875 10.8344 10.875 11.25C10.875 11.6656 10.5406 12 10.125 12H7.625C7.20937 12 6.875 11.6656 6.875 11.25C6.875 10.8344 7.20937 10.5 7.625 10.5ZM8.875 4C9.14022 4 9.39457 4.10536 9.58211 4.29289C9.76964 4.48043 9.875 4.73478 9.875 5C9.875 5.26522 9.76964 5.51957 9.58211 5.70711C9.39457 5.89464 9.14022 6 8.875 6C8.60978 6 8.35543 5.89464 8.16789 5.70711C7.98036 5.51957 7.875 5.26522 7.875 5C7.875 4.73478 7.98036 4.48043 8.16789 4.29289C8.35543 4.10536 8.60978 4 8.875 4Z" fill="#00D4FF"/>
</g>
<defs>
<clipPath id="clip0_4_308">
<path d="M0.875 0H16.875V16H0.875V0Z" fill="white"/>
</clipPath>
</defs>
</svg>
